<svg width="24" height="24" viewBox="0 0 24 24" fill="none" xmlns="http://www.w3.org/2000/svg">
<path d="M10.3344 5.02734L10.3605 8.62849C12.2431 8.87029 14.0305 9.44026 15.7232 10.3384C17.4676 11.2538 18.9187 12.4196 20.0759 13.8359C21.3367 15.3731 22.1398 17.0657 22.4852 18.9138C22.5197 19.1211 22.4938 19.3197 22.4075 19.5097C22.3211 19.6997 22.2003 19.8292 22.0448 19.8983C21.8894 19.9501 21.7423 19.9069 21.6042 19.7687C20.7579 18.8361 19.6268 17.9984 18.2105 17.2557C16.9324 16.5821 15.5591 16.0553 14.091 15.6754C12.7093 15.3126 11.4659 15.1313 10.3605 15.1313L10.3344 18.862C10.3344 19.2938 10.2395 19.6047 10.0495 19.7947C9.8941 19.9501 9.69547 20.0106 9.45367 19.976C9.21187 19.9242 8.99586 19.8119 8.80587 19.6392C8.14955 18.9829 6.90606 17.7739 5.07526 16.0121C3.46899 14.475 2.41544 13.4559 1.91456 12.9551C1.63821 12.6787 1.5 12.3678 1.5 12.0224C1.51727 11.6769 1.67272 11.3574 1.96634 11.0638C4.02168 9.00847 6.3103 6.73724 8.83197 4.25011C9.00468 4.07739 9.20331 3.99967 9.42784 4.01694C9.66965 4.01694 9.87683 4.11194 10.0495 4.30193C10.2395 4.47464 10.3344 4.71645 10.3344 5.02734Z" fill="white"/>
</svg>
