<svg width="24" height="24" viewBox="0 0 24 24" fill="none" xmlns="http://www.w3.org/2000/svg">
<path d="M4.12506 15.4054H2.80062C2.43801 15.4054 2.13066 15.2793 1.87841 15.027C1.62616 14.759 1.5 14.4437 1.5 14.0811V9.89526C1.5 9.53265 1.62616 9.22521 1.87841 8.97296C2.13066 8.72071 2.43801 8.59458 2.80062 8.59458H4.12506C4.50344 8.59458 5.01576 8.38175 5.66216 7.95607C6.0563 7.70382 6.68698 7.23085 7.55409 6.53715C8.46851 5.81193 9.13847 5.30742 9.56415 5.02364C10.2736 4.56643 10.8491 4.33783 11.2906 4.33783H12.5202C12.8671 4.33783 13.1588 4.45607 13.3953 4.69256C13.6318 4.92904 13.75 5.22071 13.75 5.56756V18.4324C13.75 18.7793 13.6318 19.0709 13.3953 19.3074C13.1588 19.5439 12.8671 19.6621 12.5202 19.6621H11.2906C10.8491 19.6621 10.2736 19.4335 9.56415 18.9763C9.13847 18.6926 8.46851 18.188 7.55409 17.4628C6.68698 16.7691 6.0563 16.2962 5.66216 16.0439C5.01576 15.6182 4.50344 15.4054 4.12506 15.4054ZM18.7163 5.96959C18.8897 5.79616 19.0945 5.70945 19.331 5.70945C19.5833 5.70945 19.7882 5.79616 19.9459 5.96959C20.75 6.75787 21.3727 7.65652 21.8141 8.66553C22.2714 9.72184 22.5 10.8333 22.5 12C22.5 13.1194 22.2872 14.1835 21.8615 15.1926C21.4516 16.1858 20.8683 17.0687 20.1115 17.8412L19.9459 18.0067C19.7882 18.1644 19.5833 18.2432 19.331 18.2432C19.0945 18.2432 18.8897 18.1644 18.7163 18.0067C18.5586 17.8491 18.4718 17.6678 18.4561 17.4628C18.4403 17.2579 18.4955 17.0687 18.6216 16.8953L18.8581 16.6588C19.4572 16.0281 19.9223 15.3187 20.2534 14.5304C20.5844 13.7263 20.75 12.8829 20.75 12C20.75 11.0698 20.5687 10.1948 20.2061 9.37499C19.8592 8.5394 19.3626 7.8063 18.7163 7.17567L18.6216 7.08107C18.4955 6.90765 18.4403 6.71846 18.4561 6.5135C18.4718 6.30855 18.5586 6.12724 18.7163 5.96959ZM16.2331 8.38175C16.4066 8.20832 16.6115 8.12161 16.848 8.12161C17.1003 8.12161 17.3051 8.20832 17.4628 8.38175C17.9515 8.85472 18.33 9.40652 18.598 10.0372C18.866 10.652 19 11.3063 19 12C19 12.6621 18.8738 13.2928 18.6216 13.8919C18.3851 14.4752 18.0462 14.9955 17.6047 15.4527L17.4628 15.5946C17.3051 15.768 17.1003 15.8547 16.848 15.8547C16.6115 15.8547 16.4066 15.768 16.2331 15.5946C16.0755 15.4527 15.9887 15.2793 15.973 15.0743C15.973 14.8536 16.036 14.6565 16.1622 14.4831L16.3514 14.2703C16.6351 13.9707 16.8559 13.6239 17.0135 13.2297C17.1712 12.8356 17.25 12.4178 17.25 11.9763C17.25 11.5191 17.1633 11.0856 16.9898 10.6757C16.8164 10.2658 16.5642 9.90314 16.2331 9.58783L16.1622 9.49323C16.036 9.31981 15.973 9.13062 15.973 8.92567C15.9887 8.72071 16.0755 8.5394 16.2331 8.38175Z" fill="white"/>
</svg>
